<?xml version="1.0" encoding="utf-8" standalone="no"?>
<!DOCTYPE svg PUBLIC "-//W3C//DTD SVG 1.1//EN"
  "http://www.w3.org/Graphics/SVG/1.1/DTD/svg11.dtd">
<!-- Created with matplotlib (http://matplotlib.org/) -->
<svg height="288pt" version="1.1" viewBox="0 0 432 288" width="432pt" xmlns="http://www.w3.org/2000/svg" xmlns:xlink="http://www.w3.org/1999/xlink">
 <defs>
  <style type="text/css">
*{stroke-linecap:butt;stroke-linejoin:round;stroke-miterlimit:100000;}
  </style>
 </defs>
 <g id="figure_1">
  <g id="patch_1">
   <path d="M 0 288 
L 432 288 
L 432 0 
L 0 0 
z
" style="fill:#ffffff;"/>
  </g>
  <g id="patch_2">
   <path d="M 2.834646 283.698371 
L 429.165354 283.698371 
L 429.165354 18.634646 
L 2.834646 18.634646 
z
" style="fill:#ffffff;"/>
  </g>
  <g id="pane3d_1">
   <g id="patch_3">
    <path d="M 59.351369 225.128629 
L 181.369448 160.14101 
L 179.337977 35.960335 
L 50.51659 94.350375 
" style="fill:#f2f2f2;opacity:0.5;stroke:#f2f2f2;stroke-linejoin:miter;"/>
   </g>
  </g>
  <g id="pane3d_2">
   <g id="patch_4">
    <path d="M 181.369448 160.14101 
L 379.027265 196.473283 
L 387.297032 68.54799 
L 179.337977 35.960335 
" style="fill:#e6e6e6;opacity:0.5;stroke:#e6e6e6;stroke-linejoin:miter;"/>
   </g>
  </g>
  <g id="pane3d_3">
   <g id="patch_5">
    <path d="M 59.351369 225.128629 
L 267.3141 267.443481 
L 379.027265 196.473283 
L 181.369448 160.14101 
" style="fill:#ececec;opacity:0.5;stroke:#ececec;stroke-linejoin:miter;"/>
   </g>
  </g>
  <g id="axis3d_1">
   <g id="line2d_1">
    <path d="M 59.351369 225.128629 
L 267.3141 267.443481 
" style="fill:none;stroke:#000000;stroke-linecap:square;stroke-width:0.75;"/>
   </g>
   <g id="Line3DCollection_1">
    <path d="M 68.742436 227.03946 
L 190.323799 161.786945 
L 188.739424 37.433563 
" style="fill:none;stroke:#e6e6e6;"/>
    <path d="M 160.956732 245.802602 
L 278.105732 177.922492 
L 281.002622 51.891415 
" style="fill:none;stroke:#e6e6e6;"/>
    <path d="M 257.068355 265.358746 
L 369.320217 194.688991 
L 377.062911 66.94428 
" style="fill:none;stroke:#e6e6e6;"/>
   </g>
   <g id="xtick_1">
    <g id="line2d_2">
     <path clip-path="url(#pd7b4224a9c)" d="M 221.761226 147.584566 
" style="fill:none;stroke:#000000;stroke-dasharray:1.000000,3.000000;stroke-dashoffset:0.0;stroke-width:0.5;"/>
    </g>
    <g id="line2d_3">
     <path d="M 69.789867 226.477306 
L 66.643671 228.165864 
" style="fill:none;stroke:#000000;stroke-linecap:square;"/>
    </g>
    <g id="text_1">
     <!-- 0 -->
     <defs>
      <path d="M 31.78125 66.40625 
Q 24.171875 66.40625 20.328125 58.90625 
Q 16.5 51.421875 16.5 36.375 
Q 16.5 21.390625 20.328125 13.890625 
Q 24.171875 6.390625 31.78125 6.390625 
Q 39.453125 6.390625 43.28125 13.890625 
Q 47.125 21.390625 47.125 36.375 
Q 47.125 51.421875 43.28125 58.90625 
Q 39.453125 66.40625 31.78125 66.40625 
M 31.78125 74.21875 
Q 44.046875 74.21875 50.515625 64.515625 
Q 56.984375 54.828125 56.984375 36.375 
Q 56.984375 17.96875 50.515625 8.265625 
Q 44.046875 -1.421875 31.78125 -1.421875 
Q 19.53125 -1.421875 13.0625 8.265625 
Q 6.59375 17.96875 6.59375 36.375 
Q 6.59375 54.828125 13.0625 64.515625 
Q 19.53125 74.21875 31.78125 74.21875 
" id="BitstreamVeraSans-Roman-30"/>
     </defs>
     <g transform="translate(57.9789888973 246.104087017)scale(0.08 -0.08)">
      <use xlink:href="#BitstreamVeraSans-Roman-30"/>
     </g>
    </g>
   </g>
   <g id="xtick_2">
    <g id="line2d_4">
     <path clip-path="url(#pd7b4224a9c)" d="M 221.761226 147.584566 
" style="fill:none;stroke:#000000;stroke-dasharray:1.000000,3.000000;stroke-dashoffset:0.0;stroke-width:0.5;"/>
    </g>
    <g id="line2d_5">
     <path d="M 161.967468 245.216947 
L 158.931415 246.97614 
" style="fill:none;stroke:#000000;stroke-linecap:square;"/>
    </g>
    <g id="text_2">
     <!-- 500 -->
     <defs>
      <path d="M 10.796875 72.90625 
L 49.515625 72.90625 
L 49.515625 64.59375 
L 19.828125 64.59375 
L 19.828125 46.734375 
Q 21.96875 47.46875 24.109375 47.828125 
Q 26.265625 48.1875 28.421875 48.1875 
Q 40.625 48.1875 47.75 41.5 
Q 54.890625 34.8125 54.890625 23.390625 
Q 54.890625 11.625 47.5625 5.09375 
Q 40.234375 -1.421875 26.90625 -1.421875 
Q 22.3125 -1.421875 17.546875 -0.640625 
Q 12.796875 0.140625 7.71875 1.703125 
L 7.71875 11.625 
Q 12.109375 9.234375 16.796875 8.0625 
Q 21.484375 6.890625 26.703125 6.890625 
Q 35.15625 6.890625 40.078125 11.328125 
Q 45.015625 15.765625 45.015625 23.390625 
Q 45.015625 31 40.078125 35.4375 
Q 35.15625 39.890625 26.703125 39.890625 
Q 22.75 39.890625 18.8125 39.015625 
Q 14.890625 38.140625 10.796875 36.28125 
z
" id="BitstreamVeraSans-Roman-35"/>
     </defs>
     <g transform="translate(145.095353829 265.169493314)scale(0.08 -0.08)">
      <use xlink:href="#BitstreamVeraSans-Roman-35"/>
      <use x="63.623046875" xlink:href="#BitstreamVeraSans-Roman-30"/>
      <use x="127.24609375" xlink:href="#BitstreamVeraSans-Roman-30"/>
     </g>
    </g>
   </g>
   <g id="xtick_3">
    <g id="line2d_6">
     <path clip-path="url(#pd7b4224a9c)" d="M 221.761226 147.584566 
" style="fill:none;stroke:#000000;stroke-dasharray:1.000000,3.000000;stroke-dashoffset:0.0;stroke-width:0.5;"/>
    </g>
    <g id="line2d_7">
     <path d="M 258.038328 264.748086 
L 255.124641 266.582439 
" style="fill:none;stroke:#000000;stroke-linecap:square;"/>
    </g>
    <g id="text_3">
     <!-- 1000 -->
     <defs>
      <path d="M 12.40625 8.296875 
L 28.515625 8.296875 
L 28.515625 63.921875 
L 10.984375 60.40625 
L 10.984375 69.390625 
L 28.421875 72.90625 
L 38.28125 72.90625 
L 38.28125 8.296875 
L 54.390625 8.296875 
L 54.390625 0 
L 12.40625 0 
z
" id="BitstreamVeraSans-Roman-31"/>
     </defs>
     <g transform="translate(238.660721261 285.042125813)scale(0.08 -0.08)">
      <use xlink:href="#BitstreamVeraSans-Roman-31"/>
      <use x="63.623046875" xlink:href="#BitstreamVeraSans-Roman-30"/>
      <use x="127.24609375" xlink:href="#BitstreamVeraSans-Roman-30"/>
      <use x="190.869140625" xlink:href="#BitstreamVeraSans-Roman-30"/>
     </g>
    </g>
   </g>
  </g>
  <g id="axis3d_2">
   <g id="line2d_8">
    <path d="M 379.027265 196.473283 
L 267.3141 267.443481 
" style="fill:none;stroke:#000000;stroke-linecap:square;stroke-width:0.75;"/>
   </g>
   <g id="Line3DCollection_2">
    <path d="M 57.063694 91.382811 
L 65.529794 221.83796 
L 272.98877 263.838423 
" style="fill:none;stroke:#e6e6e6;"/>
    <path d="M 117.452135 64.010932 
L 122.633133 191.424352 
L 325.344995 230.577064 
" style="fill:none;stroke:#e6e6e6;"/>
    <path d="M 173.69985 38.515892 
L 176.009132 162.995949 
L 374.135361 199.581058 
" style="fill:none;stroke:#e6e6e6;"/>
   </g>
   <g id="xtick_4">
    <g id="line2d_9">
     <path clip-path="url(#pd7b4224a9c)" d="M 221.761226 147.584566 
" style="fill:none;stroke:#000000;stroke-dasharray:1.000000,3.000000;stroke-dashoffset:0.0;stroke-width:0.5;"/>
    </g>
    <g id="line2d_10">
     <path d="M 271.252419 263.486896 
L 276.465357 264.542265 
" style="fill:none;stroke:#000000;stroke-linecap:square;"/>
    </g>
    <g id="text_4">
     <!-- 0 -->
     <g transform="translate(284.724141232 281.322658144)scale(0.08 -0.08)">
      <use xlink:href="#BitstreamVeraSans-Roman-30"/>
     </g>
    </g>
   </g>
   <g id="xtick_5">
    <g id="line2d_11">
     <path clip-path="url(#pd7b4224a9c)" d="M 221.761226 147.584566 
" style="fill:none;stroke:#000000;stroke-dasharray:1.000000,3.000000;stroke-dashoffset:0.0;stroke-width:0.5;"/>
    </g>
    <g id="line2d_12">
     <path d="M 323.651016 230.249882 
L 328.73661 231.232137 
" style="fill:none;stroke:#000000;stroke-linecap:square;"/>
    </g>
    <g id="text_5">
     <!-- 500 -->
     <g transform="translate(331.462901041 247.674800152)scale(0.08 -0.08)">
      <use xlink:href="#BitstreamVeraSans-Roman-35"/>
      <use x="63.623046875" xlink:href="#BitstreamVeraSans-Roman-30"/>
      <use x="127.24609375" xlink:href="#BitstreamVeraSans-Roman-30"/>
     </g>
    </g>
   </g>
   <g id="xtick_6">
    <g id="line2d_13">
     <path clip-path="url(#pd7b4224a9c)" d="M 221.761226 147.584566 
" style="fill:none;stroke:#000000;stroke-dasharray:1.000000,3.000000;stroke-dashoffset:0.0;stroke-width:0.5;"/>
    </g>
    <g id="line2d_14">
     <path d="M 372.482108 199.275775 
L 377.445316 200.192259 
" style="fill:none;stroke:#000000;stroke-linecap:square;"/>
    </g>
    <g id="text_6">
     <!-- 1000 -->
     <g transform="translate(377.218306518 216.317592485)scale(0.08 -0.08)">
      <use xlink:href="#BitstreamVeraSans-Roman-31"/>
      <use x="63.623046875" xlink:href="#BitstreamVeraSans-Roman-30"/>
      <use x="127.24609375" xlink:href="#BitstreamVeraSans-Roman-30"/>
      <use x="190.869140625" xlink:href="#BitstreamVeraSans-Roman-30"/>
     </g>
    </g>
   </g>
  </g>
  <g id="axis3d_3">
   <g id="line2d_15">
    <path d="M 379.027265 196.473283 
L 387.297032 68.54799 
" style="fill:none;stroke:#000000;stroke-linecap:square;stroke-width:0.75;"/>
   </g>
   <g id="Line3DCollection_3">
    <path d="M 380.111853 179.695766 
L 181.102514 143.823754 
L 58.194412 208.00258 
" style="fill:none;stroke:#e6e6e6;"/>
    <path d="M 381.567903 157.172073 
L 180.744397 121.932624 
L 56.640384 184.99883 
" style="fill:none;stroke:#e6e6e6;"/>
    <path d="M 383.050979 134.230321 
L 180.379916 99.652439 
L 55.056544 161.553777 
" style="fill:none;stroke:#e6e6e6;"/>
    <path d="M 384.56184 110.858761 
L 180.008899 76.972733 
L 53.442025 137.654597 
" style="fill:none;stroke:#e6e6e6;"/>
    <path d="M 386.101274 87.0452 
L 179.631168 53.882664 
L 51.795927 113.287967 
" style="fill:none;stroke:#e6e6e6;"/>
   </g>
   <g id="xtick_7">
    <g id="line2d_16">
     <path d="M 221.761226 147.584566 
" style="fill:none;stroke:#000000;stroke-dasharray:1.000000,3.000000;stroke-dashoffset:0.0;stroke-width:0.5;"/>
    </g>
    <g id="line2d_17">
     <path d="M 378.451001 179.396392 
L 383.43703 180.295139 
" style="fill:none;stroke:#000000;stroke-linecap:square;"/>
    </g>
    <g id="text_7">
     <!-- -400 -->
     <defs>
      <path d="M 4.890625 31.390625 
L 31.203125 31.390625 
L 31.203125 23.390625 
L 4.890625 23.390625 
z
" id="BitstreamVeraSans-Roman-2d"/>
      <path d="M 37.796875 64.3125 
L 12.890625 25.390625 
L 37.796875 25.390625 
z
M 35.203125 72.90625 
L 47.609375 72.90625 
L 47.609375 25.390625 
L 58.015625 25.390625 
L 58.015625 17.1875 
L 47.609375 17.1875 
L 47.609375 0 
L 37.796875 0 
L 37.796875 17.1875 
L 4.890625 17.1875 
L 4.890625 26.703125 
z
" id="BitstreamVeraSans-Roman-34"/>
     </defs>
     <g transform="translate(391.760592288 183.951962816)scale(0.08 -0.08)">
      <use xlink:href="#BitstreamVeraSans-Roman-2d"/>
      <use x="36.083984375" xlink:href="#BitstreamVeraSans-Roman-34"/>
      <use x="99.70703125" xlink:href="#BitstreamVeraSans-Roman-30"/>
      <use x="163.330078125" xlink:href="#BitstreamVeraSans-Roman-30"/>
     </g>
    </g>
   </g>
   <g id="xtick_8">
    <g id="line2d_18">
     <path d="M 221.761226 147.584566 
" style="fill:none;stroke:#000000;stroke-dasharray:1.000000,3.000000;stroke-dashoffset:0.0;stroke-width:0.5;"/>
    </g>
    <g id="line2d_19">
     <path d="M 379.891273 156.877867 
L 384.924703 157.761106 
" style="fill:none;stroke:#000000;stroke-linecap:square;"/>
    </g>
    <g id="text_8">
     <!-- -200 -->
     <defs>
      <path d="M 19.1875 8.296875 
L 53.609375 8.296875 
L 53.609375 0 
L 7.328125 0 
L 7.328125 8.296875 
Q 12.9375 14.109375 22.625 23.890625 
Q 32.328125 33.6875 34.8125 36.53125 
Q 39.546875 41.84375 41.421875 45.53125 
Q 43.3125 49.21875 43.3125 52.78125 
Q 43.3125 58.59375 39.234375 62.25 
Q 35.15625 65.921875 28.609375 65.921875 
Q 23.96875 65.921875 18.8125 64.3125 
Q 13.671875 62.703125 7.8125 59.421875 
L 7.8125 69.390625 
Q 13.765625 71.78125 18.9375 73 
Q 24.125 74.21875 28.421875 74.21875 
Q 39.75 74.21875 46.484375 68.546875 
Q 53.21875 62.890625 53.21875 53.421875 
Q 53.21875 48.921875 51.53125 44.890625 
Q 49.859375 40.875 45.40625 35.40625 
Q 44.1875 33.984375 37.640625 27.21875 
Q 31.109375 20.453125 19.1875 8.296875 
" id="BitstreamVeraSans-Roman-32"/>
     </defs>
     <g transform="translate(393.403703941 161.459756534)scale(0.08 -0.08)">
      <use xlink:href="#BitstreamVeraSans-Roman-2d"/>
      <use x="36.083984375" xlink:href="#BitstreamVeraSans-Roman-32"/>
      <use x="99.70703125" xlink:href="#BitstreamVeraSans-Roman-30"/>
      <use x="163.330078125" xlink:href="#BitstreamVeraSans-Roman-30"/>
     </g>
    </g>
   </g>
   <g id="xtick_9">
    <g id="line2d_20">
     <path d="M 221.761226 147.584566 
" style="fill:none;stroke:#000000;stroke-dasharray:1.000000,3.000000;stroke-dashoffset:0.0;stroke-width:0.5;"/>
    </g>
    <g id="line2d_21">
     <path d="M 381.358269 133.941526 
L 386.440007 134.808526 
" style="fill:none;stroke:#000000;stroke-linecap:square;"/>
    </g>
    <g id="text_9">
     <!-- 0 -->
     <g transform="translate(401.610372306 138.550977023)scale(0.08 -0.08)">
      <use xlink:href="#BitstreamVeraSans-Roman-30"/>
     </g>
    </g>
   </g>
   <g id="xtick_10">
    <g id="line2d_22">
     <path d="M 221.761226 147.584566 
" style="fill:none;stroke:#000000;stroke-dasharray:1.000000,3.000000;stroke-dashoffset:0.0;stroke-width:0.5;"/>
    </g>
    <g id="line2d_23">
     <path d="M 382.852738 110.575633 
L 387.983721 111.425626 
" style="fill:none;stroke:#000000;stroke-linecap:square;"/>
    </g>
    <g id="text_10">
     <!-- 200 -->
     <g transform="translate(398.225200712 115.21394322)scale(0.08 -0.08)">
      <use xlink:href="#BitstreamVeraSans-Roman-32"/>
      <use x="63.623046875" xlink:href="#BitstreamVeraSans-Roman-30"/>
      <use x="127.24609375" xlink:href="#BitstreamVeraSans-Roman-30"/>
     </g>
    </g>
   </g>
   <g id="xtick_11">
    <g id="line2d_24">
     <path d="M 221.761226 147.584566 
" style="fill:none;stroke:#000000;stroke-dasharray:1.000000,3.000000;stroke-dashoffset:0.0;stroke-width:0.5;"/>
    </g>
    <g id="line2d_25">
     <path d="M 384.375461 86.768006 
L 389.55665 87.600191 
" style="fill:none;stroke:#000000;stroke-linecap:square;"/>
    </g>
    <g id="text_11">
     <!-- 400 -->
     <g transform="translate(399.962199697 91.4365332114)scale(0.08 -0.08)">
      <use xlink:href="#BitstreamVeraSans-Roman-34"/>
      <use x="63.623046875" xlink:href="#BitstreamVeraSans-Roman-30"/>
      <use x="127.24609375" xlink:href="#BitstreamVeraSans-Roman-30"/>
     </g>
    </g>
   </g>
  </g>
  <g id="axes_1">
   <g id="Path3DCollection_1">
    <defs>
     <path d="M 0 1.5 
C 0.397805 1.5 0.77937 1.341951 1.06066 1.06066 
C 1.341951 0.77937 1.5 0.397805 1.5 0 
C 1.5 -0.397805 1.341951 -0.77937 1.06066 -1.06066 
C 0.77937 -1.341951 0.397805 -1.5 0 -1.5 
C -0.397805 -1.5 -0.77937 -1.341951 -1.06066 -1.06066 
C -1.341951 -0.77937 -1.5 -0.397805 -1.5 0 
C -1.5 0.397805 -1.341951 0.77937 -1.06066 1.06066 
C -0.77937 1.341951 -0.397805 1.5 0 1.5 
z
" id="m4b9d1d517f" style="stroke:#000000;stroke-opacity:0.3;stroke-width:0.1;"/>
    </defs>
    <g clip-path="url(#pd7b4224a9c)">
     <use style="fill:#008000;fill-opacity:0.3;stroke:#000000;stroke-opacity:0.3;stroke-width:0.1;" x="310.060271765" xlink:href="#m4b9d1d517f" y="140.310784822"/>
    </g>
   </g>
   <g id="Path3DCollection_2">
    <defs>
     <path d="M 0 1.5 
C 0.397805 1.5 0.77937 1.341951 1.06066 1.06066 
C 1.341951 0.77937 1.5 0.397805 1.5 0 
C 1.5 -0.397805 1.341951 -0.77937 1.06066 -1.06066 
C 0.77937 -1.341951 0.397805 -1.5 0 -1.5 
C -0.397805 -1.5 -0.77937 -1.341951 -1.06066 -1.06066 
C -1.341951 -0.77937 -1.5 -0.397805 -1.5 0 
C -1.5 0.397805 -1.341951 0.77937 -1.06066 1.06066 
C -0.77937 1.341951 -0.397805 1.5 0 1.5 
z
" id="m032264d26a" style="stroke:#000000;stroke-opacity:0.3;stroke-width:0.1;"/>
    </defs>
    <g clip-path="url(#pd7b4224a9c)">
     <use style="fill:#ff0000;fill-opacity:0.3;stroke:#000000;stroke-opacity:0.3;stroke-width:0.1;" x="310.06646402" xlink:href="#m032264d26a" y="140.136241564"/>
    </g>
   </g>
   <g id="line2d_26">
    <path clip-path="url(#pd7b4224a9c)" d="M 71.026444 160.294705 
L 263.897798 196.631267 
L 368.05504 135.548746 
L 184.078496 104.010359 
L 71.026444 160.294705 
L 71.017782 160.152833 
L 263.900324 196.485436 
L 368.063198 135.409674 
L 184.076476 103.874977 
L 71.017782 160.152833 
" style="fill:none;stroke:#008000;stroke-linecap:round;"/>
   </g>
   <g id="Path3DCollection_3">
    <defs>
     <path d="M 0 0 
L 0 0 
L 0 0 
L 0 0 
L 0 0 
L 0 0 
L 0 0 
L 0 0 
L 0 0 
L 0 0 
L 0 0 
L 0 0 
L 0 0 
" id="m888e5112cb"/>
    </defs>
    <g clip-path="url(#pd7b4224a9c)">
     <use style="fill:#ff0000;fill-opacity:0.0;" x="74.5419185882" xlink:href="#m888e5112cb" y="217.875763117"/>
    </g>
   </g>
   <g id="line2d_27">
    <path clip-path="url(#pd7b4224a9c)" d="M 263.897798 196.631267 
L 263.900324 196.485436 
" style="fill:none;stroke:#008000;stroke-linecap:round;"/>
   </g>
   <g id="Path3DCollection_4">
    <g clip-path="url(#pd7b4224a9c)">
     <use style="fill:#008000;fill-opacity:0.3;stroke:#000000;stroke-opacity:0.3;stroke-width:0.1;" x="94.9140441719" xlink:href="#m4b9d1d517f" y="148.329916218"/>
    </g>
   </g>
   <g id="line2d_28">
    <path clip-path="url(#pd7b4224a9c)" d="M 368.05504 135.548746 
L 368.063198 135.409674 
" style="fill:none;stroke:#008000;stroke-linecap:round;"/>
   </g>
   <g id="text_12">
    <!-- A FastHenry example using a reference plane -->
    <defs>
     <path d="M 44.28125 53.078125 
L 44.28125 44.578125 
Q 40.484375 46.53125 36.375 47.5 
Q 32.28125 48.484375 27.875 48.484375 
Q 21.1875 48.484375 17.84375 46.4375 
Q 14.5 44.390625 14.5 40.28125 
Q 14.5 37.15625 16.890625 35.375 
Q 19.28125 33.59375 26.515625 31.984375 
L 29.59375 31.296875 
Q 39.15625 29.25 43.1875 25.515625 
Q 47.21875 21.78125 47.21875 15.09375 
Q 47.21875 7.46875 41.1875 3.015625 
Q 35.15625 -1.421875 24.609375 -1.421875 
Q 20.21875 -1.421875 15.453125 -0.5625 
Q 10.6875 0.296875 5.421875 2 
L 5.421875 11.28125 
Q 10.40625 8.6875 15.234375 7.390625 
Q 20.0625 6.109375 24.8125 6.109375 
Q 31.15625 6.109375 34.5625 8.28125 
Q 37.984375 10.453125 37.984375 14.40625 
Q 37.984375 18.0625 35.515625 20.015625 
Q 33.0625 21.96875 24.703125 23.78125 
L 21.578125 24.515625 
Q 13.234375 26.265625 9.515625 29.90625 
Q 5.8125 33.546875 5.8125 39.890625 
Q 5.8125 47.609375 11.28125 51.796875 
Q 16.75 56 26.8125 56 
Q 31.78125 56 36.171875 55.265625 
Q 40.578125 54.546875 44.28125 53.078125 
" id="BitstreamVeraSans-Roman-73"/>
     <path d="M 52 44.1875 
Q 55.375 50.25 60.0625 53.125 
Q 64.75 56 71.09375 56 
Q 79.640625 56 84.28125 50.015625 
Q 88.921875 44.046875 88.921875 33.015625 
L 88.921875 0 
L 79.890625 0 
L 79.890625 32.71875 
Q 79.890625 40.578125 77.09375 44.375 
Q 74.3125 48.1875 68.609375 48.1875 
Q 61.625 48.1875 57.5625 43.546875 
Q 53.515625 38.921875 53.515625 30.90625 
L 53.515625 0 
L 44.484375 0 
L 44.484375 32.71875 
Q 44.484375 40.625 41.703125 44.40625 
Q 38.921875 48.1875 33.109375 48.1875 
Q 26.21875 48.1875 22.15625 43.53125 
Q 18.109375 38.875 18.109375 30.90625 
L 18.109375 0 
L 9.078125 0 
L 9.078125 54.6875 
L 18.109375 54.6875 
L 18.109375 46.1875 
Q 21.1875 51.21875 25.484375 53.609375 
Q 29.78125 56 35.6875 56 
Q 41.65625 56 45.828125 52.96875 
Q 50 49.953125 52 44.1875 
" id="BitstreamVeraSans-Roman-6d"/>
     <path d="M 54.890625 33.015625 
L 54.890625 0 
L 45.90625 0 
L 45.90625 32.71875 
Q 45.90625 40.484375 42.875 44.328125 
Q 39.84375 48.1875 33.796875 48.1875 
Q 26.515625 48.1875 22.3125 43.546875 
Q 18.109375 38.921875 18.109375 30.90625 
L 18.109375 0 
L 9.078125 0 
L 9.078125 54.6875 
L 18.109375 54.6875 
L 18.109375 46.1875 
Q 21.34375 51.125 25.703125 53.5625 
Q 30.078125 56 35.796875 56 
Q 45.21875 56 50.046875 50.171875 
Q 54.890625 44.34375 54.890625 33.015625 
" id="BitstreamVeraSans-Roman-6e"/>
     <path d="M 9.421875 54.6875 
L 18.40625 54.6875 
L 18.40625 0 
L 9.421875 0 
z
M 9.421875 75.984375 
L 18.40625 75.984375 
L 18.40625 64.59375 
L 9.421875 64.59375 
z
" id="BitstreamVeraSans-Roman-69"/>
     <path d="M 9.8125 72.90625 
L 51.703125 72.90625 
L 51.703125 64.59375 
L 19.671875 64.59375 
L 19.671875 43.109375 
L 48.578125 43.109375 
L 48.578125 34.8125 
L 19.671875 34.8125 
L 19.671875 0 
L 9.8125 0 
z
" id="BitstreamVeraSans-Roman-46"/>
     <path d="M 41.109375 46.296875 
Q 39.59375 47.171875 37.8125 47.578125 
Q 36.03125 48 33.890625 48 
Q 26.265625 48 22.1875 43.046875 
Q 18.109375 38.09375 18.109375 28.8125 
L 18.109375 0 
L 9.078125 0 
L 9.078125 54.6875 
L 18.109375 54.6875 
L 18.109375 46.1875 
Q 20.953125 51.171875 25.484375 53.578125 
Q 30.03125 56 36.53125 56 
Q 37.453125 56 38.578125 55.875 
Q 39.703125 55.765625 41.0625 55.515625 
z
" id="BitstreamVeraSans-Roman-72"/>
     <path d="M 8.5 21.578125 
L 8.5 54.6875 
L 17.484375 54.6875 
L 17.484375 21.921875 
Q 17.484375 14.15625 20.5 10.265625 
Q 23.53125 6.390625 29.59375 6.390625 
Q 36.859375 6.390625 41.078125 11.03125 
Q 45.3125 15.671875 45.3125 23.6875 
L 45.3125 54.6875 
L 54.296875 54.6875 
L 54.296875 0 
L 45.3125 0 
L 45.3125 8.40625 
Q 42.046875 3.421875 37.71875 1 
Q 33.40625 -1.421875 27.6875 -1.421875 
Q 18.265625 -1.421875 13.375 4.4375 
Q 8.5 10.296875 8.5 21.578125 
" id="BitstreamVeraSans-Roman-75"/>
     <path d="M 45.40625 27.984375 
Q 45.40625 37.75 41.375 43.109375 
Q 37.359375 48.484375 30.078125 48.484375 
Q 22.859375 48.484375 18.828125 43.109375 
Q 14.796875 37.75 14.796875 27.984375 
Q 14.796875 18.265625 18.828125 12.890625 
Q 22.859375 7.515625 30.078125 7.515625 
Q 37.359375 7.515625 41.375 12.890625 
Q 45.40625 18.265625 45.40625 27.984375 
M 54.390625 6.78125 
Q 54.390625 -7.171875 48.1875 -13.984375 
Q 42 -20.796875 29.203125 -20.796875 
Q 24.46875 -20.796875 20.265625 -20.09375 
Q 16.0625 -19.390625 12.109375 -17.921875 
L 12.109375 -9.1875 
Q 16.0625 -11.328125 19.921875 -12.34375 
Q 23.78125 -13.375 27.78125 -13.375 
Q 36.625 -13.375 41.015625 -8.765625 
Q 45.40625 -4.15625 45.40625 5.171875 
L 45.40625 9.625 
Q 42.625 4.78125 38.28125 2.390625 
Q 33.9375 0 27.875 0 
Q 17.828125 0 11.671875 7.65625 
Q 5.515625 15.328125 5.515625 27.984375 
Q 5.515625 40.671875 11.671875 48.328125 
Q 17.828125 56 27.875 56 
Q 33.9375 56 38.28125 53.609375 
Q 42.625 51.21875 45.40625 46.390625 
L 45.40625 54.6875 
L 54.390625 54.6875 
z
" id="BitstreamVeraSans-Roman-67"/>
     <path d="M 9.8125 72.90625 
L 19.671875 72.90625 
L 19.671875 43.015625 
L 55.515625 43.015625 
L 55.515625 72.90625 
L 65.375 72.90625 
L 65.375 0 
L 55.515625 0 
L 55.515625 34.71875 
L 19.671875 34.71875 
L 19.671875 0 
L 9.8125 0 
z
" id="BitstreamVeraSans-Roman-48"/>
     <path d="M 56.203125 29.59375 
L 56.203125 25.203125 
L 14.890625 25.203125 
Q 15.484375 15.921875 20.484375 11.0625 
Q 25.484375 6.203125 34.421875 6.203125 
Q 39.59375 6.203125 44.453125 7.46875 
Q 49.3125 8.734375 54.109375 11.28125 
L 54.109375 2.78125 
Q 49.265625 0.734375 44.1875 -0.34375 
Q 39.109375 -1.421875 33.890625 -1.421875 
Q 20.796875 -1.421875 13.15625 6.1875 
Q 5.515625 13.8125 5.515625 26.8125 
Q 5.515625 40.234375 12.765625 48.109375 
Q 20.015625 56 32.328125 56 
Q 43.359375 56 49.78125 48.890625 
Q 56.203125 41.796875 56.203125 29.59375 
M 47.21875 32.234375 
Q 47.125 39.59375 43.09375 43.984375 
Q 39.0625 48.390625 32.421875 48.390625 
Q 24.90625 48.390625 20.390625 44.140625 
Q 15.875 39.890625 15.1875 32.171875 
z
" id="BitstreamVeraSans-Roman-65"/>
     <path d="M 18.109375 8.203125 
L 18.109375 -20.796875 
L 9.078125 -20.796875 
L 9.078125 54.6875 
L 18.109375 54.6875 
L 18.109375 46.390625 
Q 20.953125 51.265625 25.265625 53.625 
Q 29.59375 56 35.59375 56 
Q 45.5625 56 51.78125 48.09375 
Q 58.015625 40.1875 58.015625 27.296875 
Q 58.015625 14.40625 51.78125 6.484375 
Q 45.5625 -1.421875 35.59375 -1.421875 
Q 29.59375 -1.421875 25.265625 0.953125 
Q 20.953125 3.328125 18.109375 8.203125 
M 48.6875 27.296875 
Q 48.6875 37.203125 44.609375 42.84375 
Q 40.53125 48.484375 33.40625 48.484375 
Q 26.265625 48.484375 22.1875 42.84375 
Q 18.109375 37.203125 18.109375 27.296875 
Q 18.109375 17.390625 22.1875 11.75 
Q 26.265625 6.109375 33.40625 6.109375 
Q 40.53125 6.109375 44.609375 11.75 
Q 48.6875 17.390625 48.6875 27.296875 
" id="BitstreamVeraSans-Roman-70"/>
     <path d="M 9.421875 75.984375 
L 18.40625 75.984375 
L 18.40625 0 
L 9.421875 0 
z
" id="BitstreamVeraSans-Roman-6c"/>
     <path d="M 37.109375 75.984375 
L 37.109375 68.5 
L 28.515625 68.5 
Q 23.6875 68.5 21.796875 66.546875 
Q 19.921875 64.59375 19.921875 59.515625 
L 19.921875 54.6875 
L 34.71875 54.6875 
L 34.71875 47.703125 
L 19.921875 47.703125 
L 19.921875 0 
L 10.890625 0 
L 10.890625 47.703125 
L 2.296875 47.703125 
L 2.296875 54.6875 
L 10.890625 54.6875 
L 10.890625 58.5 
Q 10.890625 67.625 15.140625 71.796875 
Q 19.390625 75.984375 28.609375 75.984375 
z
" id="BitstreamVeraSans-Roman-66"/>
     <path d="M 34.28125 27.484375 
Q 23.390625 27.484375 19.1875 25 
Q 14.984375 22.515625 14.984375 16.5 
Q 14.984375 11.71875 18.140625 8.90625 
Q 21.296875 6.109375 26.703125 6.109375 
Q 34.1875 6.109375 38.703125 11.40625 
Q 43.21875 16.703125 43.21875 25.484375 
L 43.21875 27.484375 
z
M 52.203125 31.203125 
L 52.203125 0 
L 43.21875 0 
L 43.21875 8.296875 
Q 40.140625 3.328125 35.546875 0.953125 
Q 30.953125 -1.421875 24.3125 -1.421875 
Q 15.921875 -1.421875 10.953125 3.296875 
Q 6 8.015625 6 15.921875 
Q 6 25.140625 12.171875 29.828125 
Q 18.359375 34.515625 30.609375 34.515625 
L 43.21875 34.515625 
L 43.21875 35.40625 
Q 43.21875 41.609375 39.140625 45 
Q 35.0625 48.390625 27.6875 48.390625 
Q 23 48.390625 18.546875 47.265625 
Q 14.109375 46.140625 10.015625 43.890625 
L 10.015625 52.203125 
Q 14.9375 54.109375 19.578125 55.046875 
Q 24.21875 56 28.609375 56 
Q 40.484375 56 46.34375 49.84375 
Q 52.203125 43.703125 52.203125 31.203125 
" id="BitstreamVeraSans-Roman-61"/>
     <path d="M 54.890625 54.6875 
L 35.109375 28.078125 
L 55.90625 0 
L 45.3125 0 
L 29.390625 21.484375 
L 13.484375 0 
L 2.875 0 
L 24.125 28.609375 
L 4.6875 54.6875 
L 15.28125 54.6875 
L 29.78125 35.203125 
L 44.28125 54.6875 
z
" id="BitstreamVeraSans-Roman-78"/>
     <path d="M 48.78125 52.59375 
L 48.78125 44.1875 
Q 44.96875 46.296875 41.140625 47.34375 
Q 37.3125 48.390625 33.40625 48.390625 
Q 24.65625 48.390625 19.8125 42.84375 
Q 14.984375 37.3125 14.984375 27.296875 
Q 14.984375 17.28125 19.8125 11.734375 
Q 24.65625 6.203125 33.40625 6.203125 
Q 37.3125 6.203125 41.140625 7.25 
Q 44.96875 8.296875 48.78125 10.40625 
L 48.78125 2.09375 
Q 45.015625 0.34375 40.984375 -0.53125 
Q 36.96875 -1.421875 32.421875 -1.421875 
Q 20.0625 -1.421875 12.78125 6.34375 
Q 5.515625 14.109375 5.515625 27.296875 
Q 5.515625 40.671875 12.859375 48.328125 
Q 20.21875 56 33.015625 56 
Q 37.15625 56 41.109375 55.140625 
Q 45.0625 54.296875 48.78125 52.59375 
" id="BitstreamVeraSans-Roman-63"/>
     <path d="M 34.1875 63.1875 
L 20.796875 26.90625 
L 47.609375 26.90625 
z
M 28.609375 72.90625 
L 39.796875 72.90625 
L 67.578125 0 
L 57.328125 0 
L 50.6875 18.703125 
L 17.828125 18.703125 
L 11.1875 0 
L 0.78125 0 
z
" id="BitstreamVeraSans-Roman-41"/>
     <path d="M 32.171875 -5.078125 
Q 28.375 -14.84375 24.75 -17.8125 
Q 21.140625 -20.796875 15.09375 -20.796875 
L 7.90625 -20.796875 
L 7.90625 -13.28125 
L 13.1875 -13.28125 
Q 16.890625 -13.28125 18.9375 -11.515625 
Q 21 -9.765625 23.484375 -3.21875 
L 25.09375 0.875 
L 2.984375 54.6875 
L 12.5 54.6875 
L 29.59375 11.921875 
L 46.6875 54.6875 
L 56.203125 54.6875 
z
" id="BitstreamVeraSans-Roman-79"/>
     <path id="BitstreamVeraSans-Roman-20"/>
     <path d="M 18.3125 70.21875 
L 18.3125 54.6875 
L 36.8125 54.6875 
L 36.8125 47.703125 
L 18.3125 47.703125 
L 18.3125 18.015625 
Q 18.3125 11.328125 20.140625 9.421875 
Q 21.96875 7.515625 27.59375 7.515625 
L 36.8125 7.515625 
L 36.8125 0 
L 27.59375 0 
Q 17.1875 0 13.234375 3.875 
Q 9.28125 7.765625 9.28125 18.015625 
L 9.28125 47.703125 
L 2.6875 47.703125 
L 2.6875 54.6875 
L 9.28125 54.6875 
L 9.28125 70.21875 
z
" id="BitstreamVeraSans-Roman-74"/>
    </defs>
    <g transform="translate(55.53703125 13.6346456693)scale(0.14 -0.14)">
     <use xlink:href="#BitstreamVeraSans-Roman-41"/>
     <use x="68.408203125" xlink:href="#BitstreamVeraSans-Roman-20"/>
     <use x="100.1953125" xlink:href="#BitstreamVeraSans-Roman-46"/>
     <use x="157.57421875" xlink:href="#BitstreamVeraSans-Roman-61"/>
     <use x="218.853515625" xlink:href="#BitstreamVeraSans-Roman-73"/>
     <use x="270.953125" xlink:href="#BitstreamVeraSans-Roman-74"/>
     <use x="310.162109375" xlink:href="#BitstreamVeraSans-Roman-48"/>
     <use x="385.357421875" xlink:href="#BitstreamVeraSans-Roman-65"/>
     <use x="446.880859375" xlink:href="#BitstreamVeraSans-Roman-6e"/>
     <use x="510.259765625" xlink:href="#BitstreamVeraSans-Roman-72"/>
     <use x="551.373046875" xlink:href="#BitstreamVeraSans-Roman-79"/>
     <use x="610.552734375" xlink:href="#BitstreamVeraSans-Roman-20"/>
     <use x="642.33984375" xlink:href="#BitstreamVeraSans-Roman-65"/>
     <use x="703.84765625" xlink:href="#BitstreamVeraSans-Roman-78"/>
     <use x="763.02734375" xlink:href="#BitstreamVeraSans-Roman-61"/>
     <use x="824.306640625" xlink:href="#BitstreamVeraSans-Roman-6d"/>
     <use x="921.71875" xlink:href="#BitstreamVeraSans-Roman-70"/>
     <use x="985.1953125" xlink:href="#BitstreamVeraSans-Roman-6c"/>
     <use x="1012.978515625" xlink:href="#BitstreamVeraSans-Roman-65"/>
     <use x="1074.501953125" xlink:href="#BitstreamVeraSans-Roman-20"/>
     <use x="1106.2890625" xlink:href="#BitstreamVeraSans-Roman-75"/>
     <use x="1169.66796875" xlink:href="#BitstreamVeraSans-Roman-73"/>
     <use x="1221.767578125" xlink:href="#BitstreamVeraSans-Roman-69"/>
     <use x="1249.55078125" xlink:href="#BitstreamVeraSans-Roman-6e"/>
     <use x="1312.9296875" xlink:href="#BitstreamVeraSans-Roman-67"/>
     <use x="1376.40625" xlink:href="#BitstreamVeraSans-Roman-20"/>
     <use x="1408.193359375" xlink:href="#BitstreamVeraSans-Roman-61"/>
     <use x="1469.47265625" xlink:href="#BitstreamVeraSans-Roman-20"/>
     <use x="1501.259765625" xlink:href="#BitstreamVeraSans-Roman-72"/>
     <use x="1542.341796875" xlink:href="#BitstreamVeraSans-Roman-65"/>
     <use x="1603.865234375" xlink:href="#BitstreamVeraSans-Roman-66"/>
     <use x="1639.0703125" xlink:href="#BitstreamVeraSans-Roman-65"/>
     <use x="1700.59375" xlink:href="#BitstreamVeraSans-Roman-72"/>
     <use x="1741.67578125" xlink:href="#BitstreamVeraSans-Roman-65"/>
     <use x="1803.19921875" xlink:href="#BitstreamVeraSans-Roman-6e"/>
     <use x="1866.578125" xlink:href="#BitstreamVeraSans-Roman-63"/>
     <use x="1921.55859375" xlink:href="#BitstreamVeraSans-Roman-65"/>
     <use x="1983.08203125" xlink:href="#BitstreamVeraSans-Roman-20"/>
     <use x="2014.869140625" xlink:href="#BitstreamVeraSans-Roman-70"/>
     <use x="2078.345703125" xlink:href="#BitstreamVeraSans-Roman-6c"/>
     <use x="2106.12890625" xlink:href="#BitstreamVeraSans-Roman-61"/>
     <use x="2167.408203125" xlink:href="#BitstreamVeraSans-Roman-6e"/>
     <use x="2230.787109375" xlink:href="#BitstreamVeraSans-Roman-65"/>
    </g>
   </g>
   <g id="Path3DCollection_5">
    <g clip-path="url(#pd7b4224a9c)">
     <use style="fill:#ff0000;fill-opacity:0.3;stroke:#000000;stroke-opacity:0.3;stroke-width:0.1;" x="94.9050615989" xlink:href="#m032264d26a" y="148.15423365"/>
    </g>
   </g>
   <g id="line2d_29">
    <path clip-path="url(#pd7b4224a9c)" d="M 184.078496 104.010359 
L 184.076476 103.874977 
" style="fill:none;stroke:#008000;stroke-linecap:round;"/>
   </g>
   <g id="Path3DCollection_6">
    <g clip-path="url(#pd7b4224a9c)">
     <use style="fill:#ff0000;fill-opacity:0.0;" x="371.544459292" xlink:href="#m888e5112cb" y="76.0691991728"/>
    </g>
   </g>
   <g id="line2d_30">
    <path clip-path="url(#pd7b4224a9c)" d="M 310.060272 140.310785 
" style="fill:none;stroke:#008000;stroke-linecap:round;"/>
   </g>
   <g id="Path3DCollection_7">
    <g clip-path="url(#pd7b4224a9c)">
     <use style="fill:#ff0000;fill-opacity:0.3;stroke:#000000;stroke-opacity:0.3;stroke-width:0.1;" x="246.461870397" xlink:href="#m032264d26a" y="176.144591985"/>
    </g>
   </g>
   <g id="line2d_31">
    <path clip-path="url(#pd7b4224a9c)" d="M 94.914044 148.329916 
" style="fill:none;stroke:#008000;stroke-linecap:round;"/>
   </g>
   <g id="line2d_32">
    <path clip-path="url(#pd7b4224a9c)" d="M 94.905062 148.154234 
" style="fill:none;stroke:#0000ff;stroke-linecap:round;"/>
   </g>
   <g id="line2d_33">
    <path clip-path="url(#pd7b4224a9c)" d="M 246.46187 176.144592 
" style="fill:none;stroke:#0000ff;stroke-linecap:round;"/>
   </g>
   <g id="line2d_34">
    <path clip-path="url(#pd7b4224a9c)" d="M 310.066464 140.136242 
" style="fill:none;stroke:#0000ff;stroke-linecap:round;"/>
   </g>
   <g id="line2d_35">
    <path clip-path="url(#pd7b4224a9c)" d="M 95.379018 147.978377 
L 95.373053 147.86127 
L 94.430814 148.330198 
L 94.436827 148.44735 
L 95.379018 147.978377 
L 246.903784 175.953915 
L 246.90501 175.834213 
L 246.019677 176.33539 
L 246.018492 176.455138 
L 246.903784 175.953915 
" style="fill:none;stroke:#0000ff;stroke-linecap:round;"/>
   </g>
   <g id="line2d_36">
    <path clip-path="url(#pd7b4224a9c)" d="M 95.373053 147.86127 
L 246.90501 175.834213 
" style="fill:none;stroke:#0000ff;stroke-linecap:round;"/>
   </g>
   <g id="line2d_37">
    <path clip-path="url(#pd7b4224a9c)" d="M 94.430814 148.330198 
L 246.019677 176.33539 
" style="fill:none;stroke:#0000ff;stroke-linecap:round;"/>
   </g>
   <g id="line2d_38">
    <path clip-path="url(#pd7b4224a9c)" d="M 94.436827 148.44735 
L 246.018492 176.455138 
" style="fill:none;stroke:#0000ff;stroke-linecap:round;"/>
   </g>
   <g id="line2d_39">
    <path clip-path="url(#pd7b4224a9c)" d="M 245.678012 176.059787 
L 245.679179 175.940075 
L 247.246032 176.22943 
L 247.244788 176.349168 
L 245.678012 176.059787 
L 309.303796 140.061676 
L 309.307888 139.945318 
L 310.829415 140.210835 
L 310.82525 140.327218 
L 309.303796 140.061676 
" style="fill:none;stroke:#0000ff;stroke-linecap:round;"/>
   </g>
   <g id="line2d_40">
    <path clip-path="url(#pd7b4224a9c)" d="M 245.679179 175.940075 
L 309.307888 139.945318 
" style="fill:none;stroke:#0000ff;stroke-linecap:round;"/>
   </g>
   <g id="line2d_41">
    <path clip-path="url(#pd7b4224a9c)" d="M 247.246032 176.22943 
L 310.829415 140.210835 
" style="fill:none;stroke:#0000ff;stroke-linecap:round;"/>
   </g>
   <g id="line2d_42">
    <path clip-path="url(#pd7b4224a9c)" d="M 247.244788 176.349168 
L 310.82525 140.327218 
" style="fill:none;stroke:#0000ff;stroke-linecap:round;"/>
   </g>
   <g id="line2d_43">
    <path clip-path="url(#pd7b4224a9c)" d="M 371.544459 76.069199 
" style="fill:none;stroke:#0000ff;stroke-linecap:round;"/>
   </g>
   <g id="line2d_44">
    <path clip-path="url(#pd7b4224a9c)" d="M 74.541919 217.875763 
" style="fill:none;stroke:#0000ff;stroke-linecap:round;"/>
   </g>
  </g>
 </g>
 <defs>
  <clipPath id="pd7b4224a9c">
   <rect height="265.063725345" width="426.330708661" x="2.83464566929" y="18.6346456693"/>
  </clipPath>
 </defs>
</svg>
