<?xml version="1.0" encoding="utf-8"?>
<svg xmlns="http://www.w3.org/2000/svg" xmlns:xlink="http://www.w3.org/1999/xlink" width="600" height="400" viewBox="0 0 2400 1600">
<defs>
  <clipPath id="clip2300">
    <rect x="0" y="0" width="2000" height="2000"/>
  </clipPath>
</defs>
<defs>
  <clipPath id="clip2301">
    <rect x="0" y="0" width="2400" height="1600"/>
  </clipPath>
</defs>
<polygon clip-path="url(#clip2301)" points="
0,1600 2400,1600 2400,0 0,0 
  " fill="#ffffff" fill-opacity="1"/>
<defs>
  <clipPath id="clip2302">
    <rect x="480" y="0" width="1681" height="1600"/>
  </clipPath>
</defs>
<polygon clip-path="url(#clip2301)" points="
502.362,1537.01 1913.39,1537.01 1913.39,125.984 502.362,125.984 
  " fill="#ffffff" fill-opacity="1"/>
<defs>
  <clipPath id="clip2303">
    <rect x="502" y="125" width="1412" height="1412"/>
  </clipPath>
</defs>
<polyline clip-path="url(#clip2301)" style="stroke:#cccccc; stroke-width:2; stroke-opacity:0.1; fill:none" points="
  527.68,1456.01 1044.15,1205.95 
  "/>
<polyline clip-path="url(#clip2301)" style="stroke:#cccccc; stroke-width:2; stroke-opacity:0.1; fill:none" points="
  1044.15,1205.95 1044.15,128.343 
  "/>
<polyline clip-path="url(#clip2301)" style="stroke:#ededed; stroke-width:2; stroke-opacity:0.1; fill:none" points="
  738.659,1475.67 1255.13,1225.61 
  "/>
<polyline clip-path="url(#clip2301)" style="stroke:#ededed; stroke-width:2; stroke-opacity:0.1; fill:none" points="
  1255.13,1225.61 1255.13,148.002 
  "/>
<polyline clip-path="url(#clip2301)" style="stroke:#cccccc; stroke-width:2; stroke-opacity:0.1; fill:none" points="
  949.639,1495.33 1466.11,1245.27 
  "/>
<polyline clip-path="url(#clip2301)" style="stroke:#cccccc; stroke-width:2; stroke-opacity:0.1; fill:none" points="
  1466.11,1245.27 1466.11,167.661 
  "/>
<polyline clip-path="url(#clip2301)" style="stroke:#ededed; stroke-width:2; stroke-opacity:0.1; fill:none" points="
  1160.62,1514.99 1677.09,1264.93 
  "/>
<polyline clip-path="url(#clip2301)" style="stroke:#ededed; stroke-width:2; stroke-opacity:0.1; fill:none" points="
  1677.09,1264.93 1677.09,187.32 
  "/>
<polyline clip-path="url(#clip2301)" style="stroke:#cccccc; stroke-width:2; stroke-opacity:0.1; fill:none" points="
  1371.6,1534.65 1888.07,1284.59 
  "/>
<polyline clip-path="url(#clip2301)" style="stroke:#cccccc; stroke-width:2; stroke-opacity:0.1; fill:none" points="
  1888.07,1284.59 1888.07,206.979 
  "/>
<polyline clip-path="url(#clip2301)" style="stroke:#cccccc; stroke-width:2; stroke-opacity:0.1; fill:none" points="
  516.979,1446.58 1411.53,1529.93 
  "/>
<polyline clip-path="url(#clip2301)" style="stroke:#cccccc; stroke-width:2; stroke-opacity:0.1; fill:none" points="
  516.979,1446.58 516.979,368.967 
  "/>
<polyline clip-path="url(#clip2301)" style="stroke:#ededed; stroke-width:2; stroke-opacity:0.1; fill:none" points="
  638.788,1387.6 1533.34,1470.95 
  "/>
<polyline clip-path="url(#clip2301)" style="stroke:#ededed; stroke-width:2; stroke-opacity:0.1; fill:none" points="
  638.788,1387.6 638.788,309.991 
  "/>
<polyline clip-path="url(#clip2301)" style="stroke:#cccccc; stroke-width:2; stroke-opacity:0.1; fill:none" points="
  760.597,1328.62 1655.15,1411.98 
  "/>
<polyline clip-path="url(#clip2301)" style="stroke:#cccccc; stroke-width:2; stroke-opacity:0.1; fill:none" points="
  760.597,1328.62 760.597,251.014 
  "/>
<polyline clip-path="url(#clip2301)" style="stroke:#ededed; stroke-width:2; stroke-opacity:0.1; fill:none" points="
  882.407,1269.65 1776.96,1353 
  "/>
<polyline clip-path="url(#clip2301)" style="stroke:#ededed; stroke-width:2; stroke-opacity:0.1; fill:none" points="
  882.407,1269.65 882.407,192.038 
  "/>
<polyline clip-path="url(#clip2301)" style="stroke:#cccccc; stroke-width:2; stroke-opacity:0.1; fill:none" points="
  1004.22,1210.67 1898.77,1294.02 
  "/>
<polyline clip-path="url(#clip2301)" style="stroke:#cccccc; stroke-width:2; stroke-opacity:0.1; fill:none" points="
  1004.22,1210.67 1004.22,133.061 
  "/>
<polyline clip-path="url(#clip2301)" style="stroke:#cccccc; stroke-width:2; stroke-opacity:0.1; fill:none" points="
  502.362,1453.65 1018.83,1203.59 
  "/>
<polyline clip-path="url(#clip2301)" style="stroke:#cccccc; stroke-width:2; stroke-opacity:0.1; fill:none" points="
  1018.83,1203.59 1913.39,1286.95 
  "/>
<polyline clip-path="url(#clip2301)" style="stroke:#ededed; stroke-width:2; stroke-opacity:0.1; fill:none" points="
  502.362,1318.95 1018.83,1068.89 
  "/>
<polyline clip-path="url(#clip2301)" style="stroke:#ededed; stroke-width:2; stroke-opacity:0.1; fill:none" points="
  1018.83,1068.89 1913.39,1152.25 
  "/>
<polyline clip-path="url(#clip2301)" style="stroke:#cccccc; stroke-width:2; stroke-opacity:0.1; fill:none" points="
  502.362,1184.25 1018.83,934.192 
  "/>
<polyline clip-path="url(#clip2301)" style="stroke:#cccccc; stroke-width:2; stroke-opacity:0.1; fill:none" points="
  1018.83,934.192 1913.39,1017.55 
  "/>
<polyline clip-path="url(#clip2301)" style="stroke:#ededed; stroke-width:2; stroke-opacity:0.1; fill:none" points="
  502.362,1049.55 1018.83,799.49 
  "/>
<polyline clip-path="url(#clip2301)" style="stroke:#ededed; stroke-width:2; stroke-opacity:0.1; fill:none" points="
  1018.83,799.49 1913.39,882.844 
  "/>
<polyline clip-path="url(#clip2301)" style="stroke:#cccccc; stroke-width:2; stroke-opacity:0.1; fill:none" points="
  502.362,914.849 1018.83,664.789 
  "/>
<polyline clip-path="url(#clip2301)" style="stroke:#cccccc; stroke-width:2; stroke-opacity:0.1; fill:none" points="
  1018.83,664.789 1913.39,748.143 
  "/>
<polyline clip-path="url(#clip2301)" style="stroke:#ededed; stroke-width:2; stroke-opacity:0.1; fill:none" points="
  502.362,780.148 1018.83,530.088 
  "/>
<polyline clip-path="url(#clip2301)" style="stroke:#ededed; stroke-width:2; stroke-opacity:0.1; fill:none" points="
  1018.83,530.088 1913.39,613.441 
  "/>
<polyline clip-path="url(#clip2301)" style="stroke:#cccccc; stroke-width:2; stroke-opacity:0.1; fill:none" points="
  502.362,645.447 1018.83,395.387 
  "/>
<polyline clip-path="url(#clip2301)" style="stroke:#cccccc; stroke-width:2; stroke-opacity:0.1; fill:none" points="
  1018.83,395.387 1913.39,478.74 
  "/>
<polyline clip-path="url(#clip2301)" style="stroke:#ededed; stroke-width:2; stroke-opacity:0.1; fill:none" points="
  502.362,510.746 1018.83,260.685 
  "/>
<polyline clip-path="url(#clip2301)" style="stroke:#ededed; stroke-width:2; stroke-opacity:0.1; fill:none" points="
  1018.83,260.685 1913.39,344.039 
  "/>
<polyline clip-path="url(#clip2301)" style="stroke:#cccccc; stroke-width:2; stroke-opacity:0.1; fill:none" points="
  502.362,376.045 1018.83,125.984 
  "/>
<polyline clip-path="url(#clip2301)" style="stroke:#cccccc; stroke-width:2; stroke-opacity:0.1; fill:none" points="
  1018.83,125.984 1913.39,209.338 
  "/>
<polyline clip-path="url(#clip2301)" style="stroke:#000000; stroke-width:4; stroke-opacity:1; fill:none" points="
  383.496,1242.16 407.493,1230.54 
  "/>
<polyline clip-path="url(#clip2301)" style="stroke:#000000; stroke-width:4; stroke-opacity:1; fill:none" points="
  432.824,1198.53 419.492,1204.98 418.159,1220.44 419.492,1218.15 423.491,1214.57 427.491,1212.63 431.49,1212.34 434.157,1214.34 435.49,1218.63 435.49,1221.92 
  434.157,1227.51 431.49,1232.09 427.491,1235.67 423.491,1237.61 419.492,1237.9 418.159,1236.9 416.825,1234.25 
  "/>
<polyline clip-path="url(#clip2301)" style="stroke:#000000; stroke-width:4; stroke-opacity:1; fill:none" points="
  451.488,1189.49 447.489,1193.07 444.822,1199.3 443.489,1208.18 443.489,1213.11 444.822,1220.7 447.489,1224.34 451.488,1224.05 454.155,1222.76 458.154,1219.18 
  460.821,1212.95 462.154,1204.08 462.154,1199.14 460.821,1191.56 458.154,1187.91 454.155,1188.2 451.488,1189.49 
  "/>
<polyline clip-path="url(#clip2301)" style="stroke:#000000; stroke-width:4; stroke-opacity:1; fill:none" points="
  478.152,1176.58 474.152,1180.16 471.486,1186.39 470.153,1195.27 470.153,1200.2 471.486,1207.79 474.152,1211.43 478.152,1211.14 480.818,1209.85 484.818,1206.27 
  487.484,1200.04 488.817,1191.17 488.817,1186.23 487.484,1178.65 484.818,1175 480.818,1175.29 478.152,1176.58 
  "/>
<polyline clip-path="url(#clip2301)" style="stroke:#000000; stroke-width:4; stroke-opacity:1; fill:none" points="
  478.152,907.178 474.152,910.761 471.486,916.989 470.153,925.863 470.153,930.8 471.486,938.383 474.152,942.029 478.152,941.738 480.818,940.448 484.818,936.865 
  487.484,930.637 488.817,921.763 488.817,916.826 487.484,909.243 484.818,905.597 480.818,905.888 478.152,907.178 
  "/>
<polyline clip-path="url(#clip2301)" style="stroke:#000000; stroke-width:4; stroke-opacity:1; fill:none" points="
  432.824,659.723 419.492,666.178 418.159,681.635 419.492,679.343 423.491,675.761 427.491,673.825 431.49,673.534 434.157,675.534 435.49,679.826 435.49,683.117 
  434.157,688.7 431.49,693.282 427.491,696.865 423.491,698.801 419.492,699.092 418.159,698.092 416.825,695.446 
  "/>
<polyline clip-path="url(#clip2301)" style="stroke:#000000; stroke-width:4; stroke-opacity:1; fill:none" points="
  451.488,650.686 447.489,654.268 444.822,660.496 443.489,669.37 443.489,674.307 444.822,681.89 447.489,685.537 451.488,685.246 454.155,683.955 458.154,680.373 
  460.821,674.145 462.154,665.27 462.154,660.333 460.821,652.75 458.154,649.104 454.155,649.395 451.488,650.686 
  "/>
<polyline clip-path="url(#clip2301)" style="stroke:#000000; stroke-width:4; stroke-opacity:1; fill:none" points="
  478.152,637.776 474.152,641.358 471.486,647.586 470.153,656.46 470.153,661.398 471.486,668.981 474.152,672.627 478.152,672.336 480.818,671.045 484.818,667.463 
  487.484,661.235 488.817,652.361 488.817,647.424 487.484,639.84 484.818,636.194 480.818,636.485 478.152,637.776 
  "/>
<polyline clip-path="url(#clip2301)" style="stroke:#000000; stroke-width:4; stroke-opacity:1; fill:none" points="
  394.161,415.622 396.828,412.686 400.827,405.812 400.827,440.372 
  "/>
<polyline clip-path="url(#clip2301)" style="stroke:#000000; stroke-width:4; stroke-opacity:1; fill:none" points="
  424.825,394.193 420.825,397.775 418.159,404.003 416.825,412.878 416.825,417.815 418.159,425.398 420.825,429.044 424.825,428.753 427.491,427.462 431.49,423.88 
  434.157,417.652 435.49,408.778 435.49,403.841 434.157,396.258 431.49,392.611 427.491,392.902 424.825,394.193 
  "/>
<polyline clip-path="url(#clip2301)" style="stroke:#000000; stroke-width:4; stroke-opacity:1; fill:none" points="
  451.488,381.283 447.489,384.866 444.822,391.094 443.489,399.968 443.489,404.905 444.822,412.488 447.489,416.134 451.488,415.843 454.155,414.552 458.154,410.97 
  460.821,404.742 462.154,395.868 462.154,390.931 460.821,383.348 458.154,379.702 454.155,379.992 451.488,381.283 
  "/>
<polyline clip-path="url(#clip2301)" style="stroke:#000000; stroke-width:4; stroke-opacity:1; fill:none" points="
  478.152,368.374 474.152,371.956 471.486,378.184 470.153,387.058 470.153,391.995 471.486,399.578 474.152,403.224 478.152,402.934 480.818,401.643 484.818,398.06 
  487.484,391.832 488.817,382.958 488.817,378.021 487.484,370.438 484.818,366.792 480.818,367.083 478.152,368.374 
  "/>
<polyline clip-path="url(#clip2301)" style="stroke:#000000; stroke-width:4; stroke-opacity:1; fill:none" points="
  502.362,1453.65 502.362,1453.65 492.033,1458.66 502.362,1453.65 502.362,1318.95 497.197,1321.45 502.362,1318.95 502.362,1184.25 492.033,1189.25 502.362,1184.25 
  502.362,1049.55 497.197,1052.05 502.362,1049.55 502.362,914.849 492.033,919.851 502.362,914.849 502.362,780.148 497.197,782.649 502.362,780.148 502.362,645.447 
  492.033,650.448 502.362,645.447 502.362,510.746 497.197,513.246 502.362,510.746 502.362,376.045 492.033,381.046 502.362,376.045 
  "/>
<polyline clip-path="url(#clip2301)" style="stroke:#000000; stroke-width:4; stroke-opacity:1; fill:none" points="
  506.578,1471.47 501.684,1472.66 498.42,1477.3 496.789,1485.37 496.789,1490.31 498.42,1498.69 501.684,1503.93 506.578,1506.03 509.841,1506.34 514.736,1505.15 
  517.999,1500.51 519.631,1492.44 519.631,1487.5 517.999,1479.12 514.736,1473.88 509.841,1471.78 506.578,1471.47 
  "/>
<polyline clip-path="url(#clip2301)" style="stroke:#000000; stroke-width:4; stroke-opacity:1; fill:none" points="
  905.696,1508.66 889.38,1507.14 887.748,1521.8 889.38,1520.31 894.275,1519.12 899.169,1519.57 904.064,1521.68 907.327,1525.27 908.959,1530.36 908.959,1533.65 
  907.327,1538.44 904.064,1541.42 899.169,1542.61 894.275,1542.16 889.38,1540.06 887.748,1538.26 886.117,1534.81 
  "/>
<polyline clip-path="url(#clip2301)" style="stroke:#000000; stroke-width:4; stroke-opacity:1; fill:none" points="
  928.537,1510.79 923.643,1511.98 920.379,1516.61 918.748,1524.69 918.748,1529.63 920.379,1538.01 923.643,1543.25 928.537,1545.35 931.8,1545.65 936.695,1544.46 
  939.958,1539.83 941.59,1531.76 941.59,1526.82 939.958,1518.44 936.695,1513.2 931.8,1511.09 928.537,1510.79 
  "/>
<polyline clip-path="url(#clip2301)" style="stroke:#000000; stroke-width:4; stroke-opacity:1; fill:none" points="
  961.168,1513.83 956.274,1515.02 953.01,1519.65 951.379,1527.73 951.379,1532.67 953.01,1541.05 956.274,1546.29 961.168,1548.39 964.431,1548.7 969.326,1547.51 
  972.589,1542.87 974.221,1534.8 974.221,1529.86 972.589,1521.48 969.326,1516.24 964.431,1514.14 961.168,1513.83 
  "/>
<polyline clip-path="url(#clip2301)" style="stroke:#000000; stroke-width:4; stroke-opacity:1; fill:none" points="
  1296.66,1551.67 1299.92,1550.33 1304.81,1545.85 1304.81,1580.41 
  "/>
<polyline clip-path="url(#clip2301)" style="stroke:#000000; stroke-width:4; stroke-opacity:1; fill:none" points="
  1334.18,1548.59 1329.29,1549.78 1326.02,1554.41 1324.39,1562.49 1324.39,1567.42 1326.02,1575.8 1329.29,1581.05 1334.18,1583.15 1337.44,1583.45 1342.34,1582.26 
  1345.6,1577.63 1347.23,1569.55 1347.23,1564.62 1345.6,1556.23 1342.34,1550.99 1337.44,1548.89 1334.18,1548.59 
  "/>
<polyline clip-path="url(#clip2301)" style="stroke:#000000; stroke-width:4; stroke-opacity:1; fill:none" points="
  1366.81,1551.63 1361.92,1552.82 1358.65,1557.45 1357.02,1565.53 1357.02,1570.46 1358.65,1578.85 1361.92,1584.09 1366.81,1586.19 1370.07,1586.49 1374.97,1585.3 
  1378.23,1580.67 1379.86,1572.59 1379.86,1567.66 1378.23,1559.28 1374.97,1554.03 1370.07,1551.93 1366.81,1551.63 
  "/>
<polyline clip-path="url(#clip2301)" style="stroke:#000000; stroke-width:4; stroke-opacity:1; fill:none" points="
  1399.44,1554.67 1394.55,1555.86 1391.28,1560.49 1389.65,1568.57 1389.65,1573.51 1391.28,1581.89 1394.55,1587.13 1399.44,1589.23 1402.71,1589.53 1407.6,1588.34 
  1410.86,1583.71 1412.5,1575.63 1412.5,1570.7 1410.86,1562.32 1407.6,1557.07 1402.71,1554.97 1399.44,1554.67 
  "/>
<polyline clip-path="url(#clip2301)" style="stroke:#000000; stroke-width:4; stroke-opacity:1; fill:none" points="
  502.362,1453.65 527.68,1456.01 517.35,1461.01 527.68,1456.01 738.659,1475.67 733.495,1478.17 738.659,1475.67 949.639,1495.33 939.309,1500.33 949.639,1495.33 
  1160.62,1514.99 1155.45,1517.49 1160.62,1514.99 1371.6,1534.65 1361.27,1539.65 1371.6,1534.65 1396.92,1537.01 
  "/>
<polyline clip-path="url(#clip2301)" style="stroke:#000000; stroke-width:4; stroke-opacity:1; fill:none" points="
  1455.71,1537.09 1451.71,1540.67 1449.04,1546.9 1447.71,1555.77 1447.71,1560.71 1449.04,1568.29 1451.71,1571.94 1455.71,1571.65 1458.38,1570.36 1462.38,1566.77 
  1465.04,1560.55 1466.38,1551.67 1466.38,1546.74 1465.04,1539.15 1462.38,1535.51 1458.38,1535.8 1455.71,1537.09 
  "/>
<polyline clip-path="url(#clip2301)" style="stroke:#000000; stroke-width:4; stroke-opacity:1; fill:none" points="
  1680.66,1428.17 1667.33,1434.63 1666,1450.08 1667.33,1447.79 1671.33,1444.21 1675.33,1442.27 1679.33,1441.98 1682,1443.98 1683.33,1448.28 1683.33,1451.57 
  1682,1457.15 1679.33,1461.73 1675.33,1465.31 1671.33,1467.25 1667.33,1467.54 1666,1466.54 1664.67,1463.89 
  "/>
<polyline clip-path="url(#clip2301)" style="stroke:#000000; stroke-width:4; stroke-opacity:1; fill:none" points="
  1699.33,1419.14 1695.33,1422.72 1692.66,1428.95 1691.33,1437.82 1691.33,1442.76 1692.66,1450.34 1695.33,1453.99 1699.33,1453.7 1702,1452.4 1706,1448.82 
  1708.66,1442.59 1709.99,1433.72 1709.99,1428.78 1708.66,1421.2 1706,1417.55 1702,1417.84 1699.33,1419.14 
  "/>
<polyline clip-path="url(#clip2301)" style="stroke:#000000; stroke-width:4; stroke-opacity:1; fill:none" points="
  1725.99,1406.23 1721.99,1409.81 1719.33,1416.04 1717.99,1424.91 1717.99,1429.85 1719.33,1437.43 1721.99,1441.08 1725.99,1440.79 1728.66,1439.49 1732.66,1435.91 
  1735.33,1429.68 1736.66,1420.81 1736.66,1415.87 1735.33,1408.29 1732.66,1404.64 1728.66,1404.93 1725.99,1406.23 
  "/>
<polyline clip-path="url(#clip2301)" style="stroke:#000000; stroke-width:4; stroke-opacity:1; fill:none" points="
  1898.95,1329.07 1901.62,1326.13 1905.62,1319.26 1905.62,1353.82 
  "/>
<polyline clip-path="url(#clip2301)" style="stroke:#000000; stroke-width:4; stroke-opacity:1; fill:none" points="
  1929.62,1307.64 1925.62,1311.22 1922.95,1317.45 1921.62,1326.32 1921.62,1331.26 1922.95,1338.84 1925.62,1342.49 1929.62,1342.2 1932.28,1340.91 1936.28,1337.32 
  1938.95,1331.1 1940.28,1322.22 1940.28,1317.28 1938.95,1309.7 1936.28,1306.06 1932.28,1306.35 1929.62,1307.64 
  "/>
<polyline clip-path="url(#clip2301)" style="stroke:#000000; stroke-width:4; stroke-opacity:1; fill:none" points="
  1956.28,1294.73 1952.28,1298.31 1949.61,1304.54 1948.28,1313.41 1948.28,1318.35 1949.61,1325.93 1952.28,1329.58 1956.28,1329.29 1958.95,1328 1962.95,1324.41 
  1965.61,1318.19 1966.94,1309.31 1966.94,1304.37 1965.61,1296.79 1962.95,1293.15 1958.95,1293.44 1956.28,1294.73 
  "/>
<polyline clip-path="url(#clip2301)" style="stroke:#000000; stroke-width:4; stroke-opacity:1; fill:none" points="
  1982.94,1281.82 1978.94,1285.4 1976.28,1291.63 1974.94,1300.5 1974.94,1305.44 1976.28,1313.02 1978.94,1316.67 1982.94,1316.38 1985.61,1315.09 1989.61,1311.5 
  1992.28,1305.28 1993.61,1296.4 1993.61,1291.46 1992.28,1283.88 1989.61,1280.24 1985.61,1280.53 1982.94,1281.82 
  "/>
<polyline clip-path="url(#clip2301)" style="stroke:#000000; stroke-width:4; stroke-opacity:1; fill:none" points="
  1396.92,1537.01 1411.53,1529.93 1429.42,1531.6 1411.53,1529.93 1533.34,1470.95 1542.29,1471.79 1533.34,1470.95 1655.15,1411.98 1673.04,1413.64 1655.15,1411.98 
  1776.96,1353 1785.91,1353.83 1776.96,1353 1898.77,1294.02 1916.66,1295.69 1898.77,1294.02 1913.39,1286.95 
  "/>
<g clip-path="url(#clip2301)">
<text style="fill:#000000; fill-opacity:1; font-family:Arial,Helvetica Neue,Helvetica,sans-serif; font-size:84; text-anchor:middle;" transform="rotate(0, 1207.87, 73.2)" x="1207.87" y="73.2">A FastHenry example using a reference plane</text>
</g>
<polyline clip-path="url(#clip2303)" style="stroke:#008000; stroke-width:4; stroke-opacity:1; fill:none" points="
  542.297,910.455 1386.21,989.09 1873.45,753.184 1029.53,674.549 542.297,910.455 542.297,909.808 1386.21,988.443 1873.45,752.537 1029.53,673.902 542.297,909.808 
  
  "/>
<polyline clip-path="url(#clip2303)" style="stroke:#008000; stroke-width:4; stroke-opacity:1; fill:none" points="
  1386.21,989.09 1386.21,988.443 
  "/>
<polyline clip-path="url(#clip2303)" style="stroke:#008000; stroke-width:4; stroke-opacity:1; fill:none" points="
  1873.45,753.184 1873.45,752.537 
  "/>
<polyline clip-path="url(#clip2303)" style="stroke:#008000; stroke-width:4; stroke-opacity:1; fill:none" points="
  1029.53,674.549 1029.53,673.902 
  "/>
<circle clip-path="url(#clip2303)" style="fill:#000000; stroke:none; fill-opacity:0.3" cx="1607.22" cy="784.315" r="11"/>
<circle clip-path="url(#clip2303)" style="fill:#008000; stroke:none; fill-opacity:0.3" cx="1607.22" cy="784.315" r="10"/>
<circle clip-path="url(#clip2303)" style="fill:#000000; stroke:none; fill-opacity:0.3" cx="639.744" cy="862.95" r="11"/>
<circle clip-path="url(#clip2303)" style="fill:#008000; stroke:none; fill-opacity:0.3" cx="639.744" cy="862.95" r="10"/>
<circle clip-path="url(#clip2303)" style="fill:#000000; stroke:none; fill-opacity:0.3" cx="639.744" cy="862.142" r="11"/>
<circle clip-path="url(#clip2303)" style="fill:#ff0000; stroke:none; fill-opacity:0.3" cx="639.744" cy="862.142" r="10"/>
<circle clip-path="url(#clip2303)" style="fill:#000000; stroke:none; fill-opacity:0.3" cx="1314.88" cy="925.05" r="11"/>
<circle clip-path="url(#clip2303)" style="fill:#ff0000; stroke:none; fill-opacity:0.3" cx="1314.88" cy="925.05" r="10"/>
<circle clip-path="url(#clip2303)" style="fill:#000000; stroke:none; fill-opacity:0.3" cx="1607.22" cy="783.507" r="11"/>
<circle clip-path="url(#clip2303)" style="fill:#ff0000; stroke:none; fill-opacity:0.3" cx="1607.22" cy="783.507" r="10"/>
<polyline clip-path="url(#clip2303)" style="stroke:#0000ff; stroke-width:4; stroke-opacity:1; fill:none" points="
  641.693,861.468 641.693,860.929 637.795,862.816 637.795,863.355 641.693,861.468 1316.83,924.376 1316.83,923.837 1312.93,925.724 1312.93,926.263 1316.83,924.376 
  
  "/>
<polyline clip-path="url(#clip2303)" style="stroke:#0000ff; stroke-width:4; stroke-opacity:1; fill:none" points="
  641.693,860.929 1316.83,923.837 
  "/>
<polyline clip-path="url(#clip2303)" style="stroke:#0000ff; stroke-width:4; stroke-opacity:1; fill:none" points="
  637.795,862.816 1312.93,925.724 
  "/>
<polyline clip-path="url(#clip2303)" style="stroke:#0000ff; stroke-width:4; stroke-opacity:1; fill:none" points="
  637.795,863.355 1312.93,926.263 
  "/>
<polyline clip-path="url(#clip2303)" style="stroke:#0000ff; stroke-width:4; stroke-opacity:1; fill:none" points="
  1311.5,925.005 1311.5,924.466 1318.25,925.095 1318.25,925.634 1311.5,925.005 1603.84,783.462 1603.84,782.923 1610.6,783.552 1610.6,784.091 1603.84,783.462 
  
  "/>
<polyline clip-path="url(#clip2303)" style="stroke:#0000ff; stroke-width:4; stroke-opacity:1; fill:none" points="
  1311.5,924.466 1603.84,782.923 
  "/>
<polyline clip-path="url(#clip2303)" style="stroke:#0000ff; stroke-width:4; stroke-opacity:1; fill:none" points="
  1318.25,925.095 1610.6,783.552 
  "/>
<polyline clip-path="url(#clip2303)" style="stroke:#0000ff; stroke-width:4; stroke-opacity:1; fill:none" points="
  1318.25,925.634 1610.6,784.091 
  "/>
<circle clip-path="url(#clip2303)" style="fill:#ff0000; stroke:none; fill-opacity:0" cx="1873.45" cy="483.081" r="2"/>
<circle clip-path="url(#clip2303)" style="fill:#ff0000; stroke:none; fill-opacity:0" cx="542.297" cy="1179.16" r="2"/>
</svg>
